<svg id="Capa_1" enable-background="new 0 0 512 512" height="512" viewBox="0 0 512 512" width="512" xmlns="http://www.w3.org/2000/svg"><g><circle cx="95" cy="50" r="50"/><path d="m150.256 107.768c-14.374 13.755-33.838 22.232-55.256 22.232s-40.882-8.477-55.256-22.232c-24.047 17.254-39.744 45.443-39.744 77.232v30c0 8.284 6.716 15 15 15h12.481c-.976 8.635-1.481 17.328-1.481 26 0 10.765.752 21.452 2.226 32.012 7.073-10.701 16.643-19.605 27.877-25.885-.061-2.039-.103-4.081-.103-6.127 0-8.677.58-17.38 1.702-26h117.298c8.284 0 15-6.716 15-15v-30c0-31.789-15.697-59.978-39.744-77.232z"/><circle cx="417" cy="50" r="50"/><path d="m472.256 107.768c-14.374 13.755-33.838 22.232-55.256 22.232s-40.882-8.477-55.256-22.232c-24.047 17.254-39.744 45.443-39.744 77.232v30c0 8.284 6.716 15 15 15h117.298c1.122 8.62 1.702 17.323 1.702 26 0 2.046-.042 4.088-.103 6.128 11.235 6.279 20.805 15.184 27.878 25.885 1.473-10.561 2.225-21.248 2.225-32.013 0-8.672-.505-17.365-1.481-26h12.481c8.284 0 15-6.716 15-15v-30c0-31.789-15.697-59.978-39.744-77.232z"/><circle cx="417" cy="332" r="50"/><path d="m472.256 389.768c-14.374 13.755-33.838 22.232-55.256 22.232s-40.882-8.477-55.256-22.232c-24.047 17.254-39.744 45.443-39.744 77.232v30c0 8.284 6.716 15 15 15h160c8.284 0 15-6.716 15-15v-30c0-31.789-15.697-59.978-39.744-77.232z"/><circle cx="95" cy="332" r="50"/><path d="m150.256 389.768c-14.374 13.755-33.838 22.232-55.256 22.232s-40.882-8.477-55.256-22.232c-24.047 17.254-39.744 45.443-39.744 77.232v30c0 8.284 6.716 15 15 15h160c8.284 0 15-6.716 15-15v-30c0-31.789-15.697-59.978-39.744-77.232z"/><path d="m256 56c29.655 0 58.56 6.48 84.992 18.913-2.578-7.847-3.992-16.215-3.992-24.913 0-3.083.193-6.121.534-9.115-25.854-9.805-53.401-14.885-81.534-14.885s-55.68 5.08-81.534 14.885c.341 2.994.534 6.032.534 9.115 0 8.698-1.414 17.066-3.992 24.913 26.432-12.433 55.337-18.913 84.992-18.913z"/><path d="m219.153 452.604c.557 4.753.847 9.558.847 14.396v16.187c11.833 1.861 23.849 2.813 36 2.813s24.167-.952 36-2.813v-16.187c0-4.838.29-9.643.847-14.396-12.07 2.25-24.375 3.396-36.847 3.396s-24.777-1.146-36.847-3.396z"/></g></svg>